<?xml version="1.0" encoding="UTF-8" standalone="no"?>
<!DOCTYPE svg PUBLIC "-//W3C//DTD SVG 1.1//EN" "http://www.w3.org/Graphics/SVG/1.1/DTD/svg11.dtd">
<svg width="100%" height="100%" viewBox="0 0 32 29" version="1.1" xmlns="http://www.w3.org/2000/svg" xmlns:xlink="http://www.w3.org/1999/xlink" xml:space="preserve" xmlns:serif="http://www.serif.com/" style="fill-rule:evenodd;clip-rule:evenodd;stroke-linejoin:round;stroke-miterlimit:2;">
    <g id="_x32_5_" serif:id="_x32_5">
        <g>
            <path d="M28.397,21.857C28.397,21.857 27.876,22.004 27.521,22.056C25.531,22.344 22.714,22.553 20.42,21.958C17.647,21.238 10.842,17.955 7.608,18C5.244,18 3.435,18.777 2.301,19.456C1.821,19.744 1.459,20.03 1.175,20.26C0.851,20.522 0.632,20.71 0.542,20.785C0.373,20.926 0.159,21.132 0.159,21.132C0.054,21.232 0,21.366 0,21.501C0.001,21.622 0.045,21.744 0.134,21.84C0.232,21.946 0.363,22 0.497,22C0.619,22 0.744,21.956 0.84,21.866C0.84,21.866 1.149,21.585 1.256,21.496C1.622,21.192 2.171,20.686 3,20.211C3.526,19.908 4.213,19.597 4.909,19.397C5.745,19.156 6.614,19.001 7.608,19.001C9.035,19.001 11.151,19.657 13.319,20.443C16.052,21.433 18.934,22.653 20.415,22.99C21.839,23.314 23.343,23.376 24.703,23.325C25.768,23.285 26.745,23.176 27.521,23.069C28.052,22.996 28.606,22.835 28.606,22.835C28.84,22.784 29.002,22.578 29.002,22.348C29.002,22.313 28.999,22.278 28.991,22.242C28.933,21.971 28.667,21.799 28.397,21.857ZM28.397,27.517C28.397,27.517 27.876,27.664 27.521,27.716C25.531,28.004 22.714,28.213 20.42,27.618C17.647,26.898 10.842,23.615 7.608,23.661C5.244,23.661 3.435,24.437 2.301,25.117C1.821,25.404 1.459,25.69 1.175,25.92C0.851,26.182 0.632,26.371 0.542,26.445C0.373,26.586 0.159,26.793 0.159,26.793C0.054,26.892 0,27.025 0,27.16C0.001,27.281 0.045,27.403 0.134,27.499C0.233,27.605 0.363,27.659 0.497,27.659C0.619,27.659 0.744,27.615 0.84,27.526C0.84,27.526 1.149,27.244 1.256,27.155C1.622,26.853 2.171,26.346 3,25.87C3.526,25.568 4.213,25.256 4.909,25.056C5.745,24.815 6.614,24.661 7.608,24.661C9.035,24.661 11.151,25.317 13.319,26.102C16.052,27.092 18.934,28.312 20.415,28.649C21.564,28.911 22.765,29.002 23.9,29C24.172,29 24.44,28.994 24.703,28.984C25.768,28.944 26.745,28.835 27.521,28.728C28.052,28.655 28.606,28.494 28.606,28.494C28.84,28.444 29.002,28.237 29.002,28.007C29.002,27.972 28.999,27.937 28.991,27.901C28.933,27.631 28.667,27.459 28.397,27.517Z"/>
        </g>
    </g>
</svg>
